<?xml version="1.0" encoding="utf-8"?>
<!-- Generator: Adobe Illustrator 27.5.0, SVG Export Plug-In . SVG Version: 6.00 Build 0)  -->
<svg version="1.1" xmlns="http://www.w3.org/2000/svg" xmlns:xlink="http://www.w3.org/1999/xlink" x="0px" y="0px"
	 viewBox="0 0 500 500" style="enable-background:new 0 0 500 500;" xml:space="preserve">
<g id="Background_Simple">
	<g id="background-simple--inject-348">
		<path style="fill:#263238;" d="M108.272,340.443c0,0,40.356,54.577,119.332,62.745s101.42-43.649,129.149-69.974
			c27.73-26.325,85.255-45.178,90.443-109.599c5.188-64.421-29.277-97.417-77.847-96.733c-48.57,0.684-63.377-10.585-104.18-33.247
			c-40.803-22.662-109.404-14.415-142.199,18.381c-32.796,32.796-57.32,48.767-64.921,110.581
			C50.447,284.41,108.272,340.443,108.272,340.443z"/>
		<path style="opacity:0.3;fill:#FFFFFF;" d="M108.272,340.443c0,0,40.356,54.577,119.332,62.745s101.42-43.649,129.149-69.974
			c27.73-26.325,85.255-45.178,90.443-109.599c5.188-64.421-29.277-97.417-77.847-96.733c-48.57,0.684-63.377-10.585-104.18-33.247
			c-40.803-22.662-109.404-14.415-142.199,18.381c-32.796,32.796-57.32,48.767-64.921,110.581
			C50.447,284.41,108.272,340.443,108.272,340.443z"/>
	</g>
</g>
<g id="Floor">
	<g>
		
			<line style="fill:none;stroke:#263238;stroke-linecap:round;stroke-linejoin:round;" x1="387.133" y1="366.834" x2="445.16" y2="366.834"/>
		
			<line style="fill:none;stroke:#263238;stroke-linecap:round;stroke-linejoin:round;" x1="81.201" y1="366.834" x2="121.217" y2="366.834"/>
	</g>
</g>
<g id="Plant">
	<g>
		<g>
			<path style="fill:#C6FF00;" d="M84.39,319.785c0,0-1.928-8.955-12.48-8.955s-22.779,6.282-22.779,6.282s11.39,3.349,17.252,5.945
				C72.245,325.653,81.293,326.479,84.39,319.785z"/>
			<path style="fill:#C6FF00;" d="M97.265,324.194c-0.102,0.013-6.931-4.319-5.172-10.6c1.759-6.281,10.133-13.986,10.803-18.759
				C102.896,294.834,114.077,322.065,97.265,324.194z"/>
			<path style="fill:#C6FF00;" d="M114.011,333.634c0,0-2.908-6.332,3.457-11.176c6.365-4.844,26.38-5.345,26.38-5.345
				s-8.291,5.861-11.055,10.3C130.03,331.85,119.766,339.186,114.011,333.634z"/>
			<path style="fill:#C6FF00;" d="M127.518,302.372c0,0-2.345-6.775,6.951-10.046c9.296-3.27,19.932-2.098,25.124-4.945
				C159.593,287.381,140.498,315.855,127.518,302.372z"/>
			<path style="fill:#C6FF00;" d="M83.413,307.122c0,0,3.36-17.918-16.303-25.204c0,0,3.336,3.533,2.985,10.852
				C69.744,300.089,69.782,308.01,83.413,307.122z"/>
			<path style="opacity:0.2;" d="M84.39,319.785c0,0-1.928-8.955-12.48-8.955s-22.779,6.282-22.779,6.282s11.39,3.349,17.252,5.945
				C72.245,325.653,81.293,326.479,84.39,319.785z"/>
			<path style="opacity:0.2;" d="M97.265,324.194c-0.102,0.013-6.931-4.319-5.172-10.6c1.759-6.281,10.133-13.986,10.803-18.759
				C102.896,294.834,114.077,322.065,97.265,324.194z"/>
			<path style="opacity:0.2;" d="M114.011,333.634c0,0-2.908-6.332,3.457-11.176c6.365-4.844,26.38-5.345,26.38-5.345
				s-8.291,5.861-11.055,10.3C130.03,331.85,119.766,339.186,114.011,333.634z"/>
			<path style="opacity:0.2;" d="M127.518,302.372c0,0-2.345-6.775,6.951-10.046c9.296-3.27,19.932-2.098,25.124-4.945
				C159.593,287.381,140.498,315.855,127.518,302.372z"/>
			<path style="opacity:0.2;" d="M83.413,307.122c0,0,3.36-17.918-16.303-25.204c0,0,3.336,3.533,2.985,10.852
				C69.744,300.089,69.782,308.01,83.413,307.122z"/>
		</g>
		<polygon style="fill:#263238;" points="88.657,345.767 116.924,345.767 112.26,367.391 94.028,367.391 		"/>
		<polyline style="fill:none;stroke:#263238;stroke-linecap:round;stroke-linejoin:round;stroke-miterlimit:10;" points="
			105.854,346.679 114.884,315.696 127.1,292.326 		"/>
		
			<line style="fill:none;stroke:#263238;stroke-linecap:round;stroke-linejoin:round;stroke-miterlimit:10;" x1="118.602" y1="331.099" x2="108.821" y2="336.5"/>
		
			<line style="fill:none;stroke:#263238;stroke-linecap:round;stroke-linejoin:round;stroke-miterlimit:10;" x1="81.245" y1="301.71" x2="99.481" y2="346.679"/>
		
			<line style="fill:none;stroke:#263238;stroke-linecap:round;stroke-linejoin:round;stroke-miterlimit:10;" x1="99.481" y1="317.112" x2="94.258" y2="333.8"/>
		
			<line style="fill:none;stroke:#263238;stroke-linecap:round;stroke-linejoin:round;stroke-miterlimit:10;" x1="79.121" y1="317.112" x2="89.659" y2="322.458"/>
		
			<line style="fill:none;stroke:#263238;stroke-linecap:round;stroke-linejoin:round;stroke-miterlimit:10;" x1="118.602" y1="308.583" x2="135.491" y2="299.33"/>
	</g>
</g>
<g id="Clouds">
	<g>
		<g id="Cloud--inject-256">
			<path style="fill:#263238;" d="M385.904,86.928c-3.278-9.003-11.426-12.769-18.198-8.411c-1.969,1.267-3.68,3.146-4.987,5.477
				c-5.27-11.678-16.663-15.465-25.448-8.459c-2.739,2.185-5.007,5.272-6.585,8.964h-0.631c-2.353,0.002-4.686,0.561-6.891,1.652
				c-3.676-11.572-11.909-19.442-21.331-20.392c-4.901-13.352-17.017-18.894-27.061-12.378c-2.88,1.868-5.385,4.619-7.309,8.026
				c-7.813-17.344-24.723-22.985-37.77-12.599c-4.082,3.249-7.461,7.849-9.807,13.351h-0.928
				c-12.119,0.002-22.977,9.957-27.285,25.015c-0.371-0.074-0.742-0.148-1.113-0.185c-3.288-9.004-11.444-12.761-18.218-8.39
				c-1.96,1.265-3.664,3.136-4.968,5.456c-5.274-11.674-16.669-15.454-25.451-8.442c-2.733,2.182-4.997,5.264-6.573,8.947h-0.631
				c-10.859,0.039-19.638,11.772-19.608,26.207c0.029,14.435,8.855,26.105,19.714,26.067c5.434-0.019,10.619-3.027,14.325-8.309
				c4.488,6.496,11.845,7.746,17.417,2.959c5.082,7.367,13.694,7.862,19.236,1.107c0.24-0.292,0.471-0.595,0.694-0.909
				c4.151,0.943,8.418-0.209,11.964-3.23c11.417,15.106,29.885,15.048,41.249-0.13c0.199-0.265,0.394-0.534,0.587-0.807
				c6.663,9.65,17.589,11.509,25.866,4.401c7.559,10.943,20.36,11.668,28.593,1.62c0.348-0.425,0.685-0.867,1.011-1.324
				c6.569,1.475,13.31-0.563,18.753-5.671c6.604,11.442,18.934,13.601,27.541,4.822c0.843-0.859,1.631-1.808,2.359-2.837
				c4.488,6.496,11.845,7.746,17.417,2.959c5.07,7.363,13.67,7.869,19.209,1.13c0.246-0.299,0.483-0.61,0.712-0.933
				c9.234,2.139,18.024-6.077,19.634-18.353c1.609-12.275-4.572-23.961-13.806-26.1c-0.557-0.129-1.118-0.221-1.682-0.275V86.928z"
				/>
			<g>
				<defs>
					<path id="SVGID_1_" d="M385.904,86.928c-3.278-9.003-11.426-12.769-18.198-8.411c-1.969,1.267-3.68,3.146-4.987,5.477
						c-5.27-11.678-16.663-15.465-25.448-8.459c-2.739,2.185-5.007,5.272-6.585,8.964h-0.631c-2.353,0.002-4.686,0.561-6.891,1.652
						c-3.676-11.572-11.909-19.442-21.331-20.392c-4.901-13.352-17.017-18.894-27.061-12.378c-2.88,1.868-5.385,4.619-7.309,8.026
						c-7.813-17.344-24.723-22.985-37.77-12.599c-4.082,3.249-7.461,7.849-9.807,13.351h-0.928
						c-12.119,0.002-22.977,9.957-27.285,25.015c-0.371-0.074-0.742-0.148-1.113-0.185c-3.288-9.004-11.444-12.761-18.218-8.39
						c-1.96,1.265-3.664,3.136-4.968,5.456c-5.274-11.674-16.669-15.454-25.451-8.442c-2.733,2.182-4.997,5.264-6.573,8.947h-0.631
						c-10.859,0.039-19.638,11.772-19.608,26.207c0.029,14.435,8.855,26.105,19.714,26.067c5.434-0.019,10.619-3.027,14.325-8.309
						c4.488,6.496,11.845,7.746,17.417,2.959c5.082,7.367,13.694,7.862,19.236,1.107c0.24-0.292,0.471-0.595,0.694-0.909
						c4.151,0.943,8.418-0.209,11.964-3.23c11.417,15.106,29.885,15.048,41.249-0.13c0.199-0.265,0.394-0.534,0.587-0.807
						c6.663,9.65,17.589,11.509,25.866,4.401c7.559,10.943,20.36,11.668,28.593,1.62c0.348-0.425,0.685-0.867,1.011-1.324
						c6.569,1.475,13.31-0.563,18.753-5.671c6.604,11.442,18.934,13.601,27.541,4.822c0.843-0.859,1.631-1.808,2.359-2.837
						c4.488,6.496,11.845,7.746,17.417,2.959c5.07,7.363,13.67,7.869,19.209,1.13c0.246-0.299,0.483-0.61,0.712-0.933
						c9.234,2.139,18.024-6.077,19.634-18.353c1.609-12.275-4.572-23.961-13.806-26.1c-0.557-0.129-1.118-0.221-1.682-0.275V86.928z
						"/>
				</defs>
				<clipPath id="SVGID_00000036931023615072534080000008275429407623817663_">
					<use xlink:href="#SVGID_1_"  style="overflow:visible;"/>
				</clipPath>
				<g style="clip-path:url(#SVGID_00000036931023615072534080000008275429407623817663_);">
					<path style="opacity:0.2;fill:#FFFFFF;enable-background:new    ;" d="M385.904,86.928
						c-3.278-9.003-11.426-12.769-18.198-8.411c-1.969,1.267-3.68,3.146-4.987,5.477c-5.27-11.678-16.663-15.465-25.448-8.459
						c-2.739,2.185-5.007,5.272-6.585,8.964h-0.631c-2.353,0.002-4.686,0.561-6.891,1.652
						c-3.676-11.572-11.909-19.442-21.331-20.392c-4.901-13.352-17.017-18.894-27.061-12.378c-2.88,1.868-5.385,4.619-7.309,8.026
						c-7.813-17.344-24.723-22.985-37.77-12.599c-4.082,3.249-7.461,7.849-9.807,13.351h-0.928
						c-12.119,0.002-22.977,9.957-27.285,25.015c-0.371-0.074-0.742-0.148-1.113-0.185c-3.288-9.004-11.444-12.761-18.218-8.39
						c-1.96,1.265-3.664,3.136-4.968,5.456c-5.274-11.674-16.669-15.454-25.451-8.442c-2.733,2.182-4.997,5.264-6.573,8.947h-0.631
						c-10.859,0.039-19.638,11.772-19.608,26.207c0.029,14.435,8.855,26.105,19.714,26.067c5.434-0.019,10.619-3.027,14.325-8.309
						c4.488,6.496,11.845,7.746,17.417,2.959c5.082,7.367,13.694,7.862,19.236,1.107c0.24-0.292,0.471-0.595,0.694-0.909
						c4.151,0.943,8.418-0.209,11.964-3.23c11.417,15.106,29.885,15.048,41.249-0.13c0.199-0.265,0.394-0.534,0.587-0.807
						c6.663,9.65,17.589,11.509,25.866,4.401c7.559,10.943,20.36,11.668,28.593,1.62c0.348-0.425,0.685-0.867,1.011-1.324
						c6.569,1.475,13.31-0.563,18.753-5.671c6.604,11.442,18.934,13.601,27.541,4.822c0.843-0.859,1.631-1.808,2.359-2.837
						c4.488,6.496,11.845,7.746,17.417,2.959c5.07,7.363,13.67,7.869,19.209,1.13c0.246-0.299,0.483-0.61,0.712-0.933
						c9.234,2.139,18.024-6.077,19.634-18.353c1.609-12.275-4.572-23.961-13.806-26.1c-0.557-0.129-1.118-0.221-1.682-0.275V86.928z
						"/>
				</g>
			</g>
			<polygon style="fill:#C6FF00;" points="184.26,109.403 178.353,130.349 186.894,130.349 176.386,165.264 199.368,128.611 
				190.177,123.371 200.676,105.038 			"/>
			<path style="fill:#263238;" d="M385.904,96.901c-3.281-9.001-11.43-12.762-18.201-8.4c-1.968,1.268-3.678,3.147-4.984,5.478
				c-5.268-11.679-16.66-15.471-25.446-8.468c-2.74,2.184-5.008,5.27-6.587,8.962h-0.631c-2.353-0.005-4.687,0.555-6.891,1.652
				c-3.674-11.573-11.908-19.444-21.331-20.392c-4.901-13.352-17.017-18.894-27.061-12.378c-2.88,1.868-5.385,4.619-7.309,8.026
				c-7.81-17.346-24.719-22.991-37.768-12.608c-4.082,3.248-7.462,7.847-9.809,13.348h-0.928
				c-12.079,0.04-22.892,9.965-27.201,24.966c-0.371,0-0.742-0.148-1.113-0.185c-3.291-9.002-11.449-12.754-18.221-8.379
				c-1.959,1.266-3.662,3.137-4.965,5.457c-5.272-11.676-16.666-15.46-25.449-8.452c-2.733,2.181-4.998,5.262-6.575,8.945h-0.631
				c-6.535-0.01-12.645,4.308-16.295,11.515c6.07,11.961,18.284,15.117,27.282,7.048c1.209-1.084,2.324-2.344,3.323-3.756
				c4.488,6.496,11.844,7.746,17.417,2.959c5.082,7.367,13.694,7.862,19.236,1.107c0.24-0.292,0.471-0.595,0.694-0.91
				c4.151,0.943,8.418-0.209,11.964-3.23c11.432,15.106,29.912,15.032,41.275-0.166c0.19-0.254,0.377-0.511,0.561-0.771
				c6.667,9.641,17.59,11.495,25.866,4.389c7.549,10.946,20.344,11.685,28.578,1.649c0.354-0.431,0.695-0.878,1.025-1.341
				c1.392,0.306,2.8,0.463,4.21,0.469c5.211,0,10.293-2.155,14.542-6.164c6.611,11.442,18.949,13.593,27.556,4.804
				c0.837-0.855,1.621-1.797,2.344-2.819c4.488,6.496,11.844,7.746,17.417,2.959c5.07,7.364,13.67,7.869,19.209,1.13
				c0.246-0.299,0.484-0.61,0.712-0.933c5.901,1.342,11.896-1.56,15.766-7.632C394.569,100.209,390.4,97.374,385.904,96.901z"/>
		</g>
		<path style="opacity:0.5;fill:#FFFFFF;enable-background:new    ;" d="M469.241,192.038c-3.942-2.159-5.737-0.364-7.168-2.159
			c-1.431-1.795,3.942-6.452-6.816-11.11c0,0-0.716-10.042-15.415-10.394c-14.7-0.352-10.758,10.03-14.7,12.541
			s-5.021-1.431-8.963,1.079s-2.147,7.532-5.373,8.247c-3.226,0.716-7.532-3.226-11.474-0.716s-3.942,4.657-5.737,4.657
			c-1.795,0-5.385-1.431-7.532,0c-2.147,1.431-4.657,3.226-4.657,3.226h90.709C472.116,197.411,473.183,194.124,469.241,192.038z"/>
		<path style="opacity:0.5;fill:#FFFFFF;enable-background:new    ;" d="M112.015,260.992c-4.236-2.32-6.165-0.391-7.703-2.32
			c-1.538-1.929,4.236-6.934-7.325-11.939c0,0-0.769-10.792-16.566-11.17c-15.797-0.378-11.561,10.779-15.797,13.477
			c-4.236,2.698-5.396-1.538-9.632,1.16c-4.236,2.698-2.307,8.094-5.774,8.863c-3.467,0.769-8.094-3.467-12.33-0.769
			c-4.236,2.698-4.236,5.005-6.165,5.005s-5.787-1.538-8.094,0c-2.307,1.538-5.005,3.467-5.005,3.467h97.479
			C115.104,266.766,116.251,263.234,112.015,260.992z"/>
		<path style="opacity:0.5;fill:#FFFFFF;enable-background:new    ;" d="M209.573,180.876h90.709c0,0-2.511-1.795-4.657-3.226
			c-2.147-1.431-5.737,0-7.532,0c-1.795,0-1.795-2.147-5.737-4.657c-3.942-2.511-8.247,1.431-11.474,0.715
			c-3.226-0.715-1.431-5.737-5.373-8.247c-3.942-2.511-5.021,1.431-8.963-1.079c-3.942-2.511,0-12.893-14.7-12.541
			c-14.7,0.352-15.415,10.394-15.415,10.394c-10.758,4.657-5.385,9.315-6.816,11.11c-1.431,1.795-3.226,0-7.168,2.159
			C208.506,177.589,209.573,180.876,209.573,180.876z"/>
		<g id="Rain--inject-256">
			
				<line style="fill:none;stroke:#263238;stroke-linecap:round;stroke-linejoin:round;" x1="146.162" y1="120.957" x2="141.783" y2="151.302"/>
			
				<line style="fill:none;stroke:#263238;stroke-linecap:round;stroke-linejoin:round;" x1="193.542" y1="140.879" x2="189.163" y2="171.224"/>
			
				<line style="fill:none;stroke:#263238;stroke-linecap:round;stroke-linejoin:round;" x1="135.556" y1="194.466" x2="132.736" y2="214.023"/>
			
				<line style="fill:none;stroke:#263238;stroke-linecap:round;stroke-linejoin:round;" x1="160.55" y1="169.155" x2="157.73" y2="188.721"/>
			
				<line style="fill:none;stroke:#263238;stroke-linecap:round;stroke-linejoin:round;" x1="128.646" y1="242.347" x2="124.267" y2="272.701"/>
			
				<line style="fill:none;stroke:#263238;stroke-linecap:round;stroke-linejoin:round;" x1="336.432" y1="152.543" x2="332.053" y2="182.888"/>
			
				<line style="fill:none;stroke:#263238;stroke-linecap:round;stroke-linejoin:round;" x1="147.057" y1="388.009" x2="144.622" y2="404.861"/>
			
				<line style="fill:none;stroke:#263238;stroke-linecap:round;stroke-linejoin:round;" x1="324.142" y1="126.625" x2="321.717" y2="143.487"/>
			
				<line style="fill:none;stroke:#263238;stroke-linecap:round;stroke-linejoin:round;" x1="155.546" y1="237.284" x2="153.111" y2="254.136"/>
			
				<line style="fill:none;stroke:#263238;stroke-linecap:round;stroke-linejoin:round;" x1="255.955" y1="328.329" x2="253.52" y2="345.181"/>
			
				<line style="fill:none;stroke:#263238;stroke-linecap:round;stroke-linejoin:round;" x1="204.562" y1="398.326" x2="202.136" y2="415.187"/>
			
				<line style="fill:none;stroke:#263238;stroke-linecap:round;stroke-linejoin:round;" x1="327.337" y1="250.883" x2="324.912" y2="267.745"/>
			
				<line style="fill:none;stroke:#263238;stroke-linecap:round;stroke-linejoin:round;" x1="350.156" y1="195.823" x2="347.721" y2="212.685"/>
			
				<line style="fill:none;stroke:#263238;stroke-linecap:round;stroke-linejoin:round;" x1="110.1" y1="172.379" x2="107.665" y2="189.231"/>
			
				<line style="fill:none;stroke:#263238;stroke-linecap:round;stroke-linejoin:round;" x1="294.711" y1="291.363" x2="292.277" y2="308.224"/>
			
				<line style="fill:none;stroke:#263238;stroke-linecap:round;stroke-linejoin:round;" x1="334.113" y1="302.286" x2="331.678" y2="319.148"/>
			
				<line style="fill:none;stroke:#263238;stroke-linecap:round;stroke-linejoin:round;" x1="306.434" y1="384.342" x2="303.999" y2="401.203"/>
			
				<line style="fill:none;stroke:#263238;stroke-linecap:round;stroke-linejoin:round;" x1="260.786" y1="134.325" x2="258.351" y2="151.186"/>
			
				<line style="fill:none;stroke:#263238;stroke-linecap:round;stroke-linejoin:round;" x1="379.703" y1="153.275" x2="377.268" y2="170.136"/>
			
				<line style="fill:none;stroke:#263238;stroke-linecap:round;stroke-linejoin:round;" x1="369.482" y1="224.09" x2="367.056" y2="240.941"/>
			
				<line style="fill:none;stroke:#263238;stroke-linecap:round;stroke-linejoin:round;" x1="350.888" y1="263.549" x2="348.453" y2="280.41"/>
			
				<line style="fill:none;stroke:#263238;stroke-linecap:round;stroke-linejoin:round;" x1="296.261" y1="149.492" x2="293.826" y2="166.354"/>
			
				<line style="fill:none;stroke:#263238;stroke-linecap:round;stroke-linejoin:round;" x1="258.38" y1="188.971" x2="255.945" y2="205.833"/>
			
				<line style="fill:none;stroke:#263238;stroke-linecap:round;stroke-linejoin:round;" x1="218.317" y1="216.497" x2="215.883" y2="233.359"/>
			
				<line style="fill:none;stroke:#263238;stroke-linecap:round;stroke-linejoin:round;" x1="304.634" y1="184.582" x2="302.199" y2="201.444"/>
			
				<line style="fill:none;stroke:#263238;stroke-linecap:round;stroke-linejoin:round;" x1="303.242" y1="228.854" x2="300.807" y2="245.715"/>
			
				<line style="fill:none;stroke:#263238;stroke-linecap:round;stroke-linejoin:round;" x1="178.894" y1="213.801" x2="176.459" y2="230.663"/>
			
				<line style="fill:none;stroke:#263238;stroke-linecap:round;stroke-linejoin:round;" x1="205.779" y1="184.582" x2="203.344" y2="201.444"/>
			
				<line style="fill:none;stroke:#263238;stroke-linecap:round;stroke-linejoin:round;" x1="167.999" y1="284.52" x2="165.574" y2="301.372"/>
			
				<line style="fill:none;stroke:#263238;stroke-linecap:round;stroke-linejoin:round;" x1="210.461" y1="309.918" x2="208.036" y2="326.78"/>
			
				<line style="fill:none;stroke:#263238;stroke-linecap:round;stroke-linejoin:round;" x1="357.009" y1="324.864" x2="351.956" y2="359.935"/>
			
				<line style="fill:none;stroke:#263238;stroke-linecap:round;stroke-linejoin:round;" x1="398.73" y1="184.38" x2="393.667" y2="219.451"/>
			
				<line style="fill:none;stroke:#263238;stroke-linecap:round;stroke-linejoin:round;" x1="191.839" y1="323.161" x2="186.786" y2="358.232"/>
			
				<line style="fill:none;stroke:#263238;stroke-linecap:round;stroke-linejoin:round;" x1="141.331" y1="340.561" x2="138.896" y2="357.423"/>
		</g>
	</g>
</g>
<g id="Character">
	<g>
		<g>
			<g>
				<path style="fill:#C6FF00;" d="M282.589,455.529c7.628-0.639,15.216-1.645,22.712-3.064
					c21.854-4.135,44.961-11.639,60.713-28.147c18.478-19.365,22.345-50.228,12.392-74.644
					c-7.707-18.908-24.369-34.205-44.182-39.139c-13.722-3.417-28.512-2.042-41.72-7.094c-20.462-7.827-32.519-29.064-51.011-40.811
					c-18.552-11.786-42.994-12.851-63.272-4.372c-20.278,8.479-36.279,25.834-44.866,46.067
					c-8.587,20.232-10.056,43.107-6.048,64.717c4.156,22.406,13.424,43.683,32.395,57.349c16.202,11.67,40.359,24.242,59.161,26.902
					C239.698,456.24,261.303,457.313,282.589,455.529z"/>
				<path style="opacity:0.5;fill:#FFFFFF;" d="M282.589,455.529c7.628-0.639,15.216-1.645,22.712-3.064
					c21.854-4.135,44.961-11.639,60.713-28.147c18.478-19.365,22.345-50.228,12.392-74.644
					c-7.707-18.908-24.369-34.205-44.182-39.139c-13.722-3.417-28.512-2.042-41.72-7.094c-20.462-7.827-32.519-29.064-51.011-40.811
					c-18.552-11.786-42.994-12.851-63.272-4.372c-20.278,8.479-36.279,25.834-44.866,46.067
					c-8.587,20.232-10.056,43.107-6.048,64.717c4.156,22.406,13.424,43.683,32.395,57.349c16.202,11.67,40.359,24.242,59.161,26.902
					C239.698,456.24,261.303,457.313,282.589,455.529z"/>
			</g>
			<path style="opacity:0.1;" d="M248.559,344.625c0,0,33.876,17.887,35.191,8.727c1.315-9.16,34.152-35.59,34.152-35.59
				c-15.228,20.174-5.825,44.804-5.825,44.804c21.637-13.732,40.621-12.178,40.621-12.178
				c-23.274,5.998-47.219,33.806-47.219,33.806l-46.066,14.759c0,0-53.612-4.414-59.108-31.918
				c-5.496-27.504-38.084-59.253-38.084-59.253l25.674,17.852c12.185-10.198-1.504-37.284-1.504-37.284
				c23.132,8.104,25.944,33.928,25.944,33.928L248.559,344.625z"/>
			<path style="fill:none;stroke:#2E353A;stroke-width:2;stroke-linecap:round;stroke-linejoin:round;stroke-miterlimit:10;" d="
				M151.679,303.841c0,0,43.742,10.865,56.834,57.454"/>
			<path style="fill:none;stroke:#2E353A;stroke-width:2;stroke-linecap:round;stroke-linejoin:round;stroke-miterlimit:10;" d="
				M180.097,284.553c0,0,30.795,11.964,21.778,60.072"/>
			<path style="fill:none;stroke:#2E353A;stroke-width:2;stroke-linecap:round;stroke-linejoin:round;stroke-miterlimit:10;" d="
				M292.768,379.022c0,0,28.509-33.634,68.84-28.003"/>
			<path style="fill:none;stroke:#2E353A;stroke-width:2;stroke-linecap:round;stroke-linejoin:round;stroke-miterlimit:10;" d="
				M293.782,366.834c0,0,4.286-46.564,35.866-54.437"/>
		</g>
		<g>
			<g>
				<path style="fill:#263238;" d="M234.12,355.309c0,0-11.042,0.331-27.06-3.245c-16.018-3.576-29.185-0.974-31.673,12.99
					c-2.488,13.964,38.443,28.26,66.912,33.464s56.96,7.465,70.842,1.949c13.882-5.516,13.519-25.337,8.18-34.438
					c-5.339-9.102-23.13-10.388-32.388-9.043C279.675,358.33,234.12,355.309,234.12,355.309z"/>
			</g>
			<g>
				<path style="fill:#263238;" d="M290.076,404.15c-16.37,0-35.368-2.875-47.872-5.155c-28.672-5.233-69.902-19.665-67.35-34.019
					c0.961-5.369,3.535-9.355,7.635-11.83c5.585-3.382,14.128-3.898,24.7-1.559c15.751,3.518,26.803,3.245,26.91,3.235l0,0
					c0.459,0,45.608,2.923,54.696,1.637c8.276-1.169,27.22-0.409,32.943,9.345c3.332,5.672,5.008,15.865,1.773,24.362
					c-1.954,5.126-5.489,8.839-10.209,10.719C307.429,403.263,299.153,404.15,290.076,404.15z M195.293,351.138
					c-4.955,0-9.088,0.974-12.216,2.836c-3.844,2.329-6.258,6.091-7.165,11.177c-2.339,13.126,37.119,27.539,66.496,32.908
					c19.328,3.528,54.194,8.468,70.479,1.949c4.442-1.774,7.774-5.272,9.611-10.144c3.107-8.166,1.442-18.262-1.698-23.612
					c-5.457-9.297-23.813-9.969-31.833-8.848c-9.173,1.296-52.71-1.471-54.909-1.618c-0.651,0-11.661,0.205-27.177-3.255
					C203.091,351.648,199.202,351.18,195.293,351.138z"/>
			</g>
			<g>
				<path style="fill:#263238;" d="M301.884,266.105c-0.445-2.711-0.808-5.533-1.172-8.265c-0.644-6.153-1.758-12.259-3.333-18.268
					c-1.863-7.378-4.868-14.857-12.344-18.926c-8.729-4.753-20.183-4.683-28.8,0.235c-5.009,2.855-8.923,7.255-11.043,12.28
					c-2.32,5.491-0.492,11.933-0.234,17.675c0.34,7.634-0.58,15.253-2.56,22.657c10.51,5.774,37.893,17.557,60.53-0.994
					C302.581,270.366,302.23,268.232,301.884,266.105z"/>
			</g>
			<g>
				<path style="fill:#FFFFFF;" d="M267.309,274.758c0,0-17.62,2.193-25.895,4.142c-8.276,1.949-11.213,4.716-14.192,9.871
					c-2.979,5.155-7.411,24.304-11.682,32.343c-4.271,8.039-12.035,10.164-13.37,18.69c-1.335,8.527,6.14,11.45,11.746,12.425
					c4.15,0.646,8.341,1.053,12.547,1.218c0,0,9.077,19.49,26.697,20.951c17.62,1.462,30.701-9.745,38.71-13.886
					c8.009-4.142,8.543-13.643,8.81-24.606c0.267-10.963,7.368-35.617,5.5-42.439c-1.869-6.821-4.667-7.942-16.798-13.643
					C284.192,277.418,274.784,274.271,267.309,274.758z"/>
			</g>
			<path style="fill:#C6FF00;" d="M298.79,285.165c0,0-5.501,6.182-5.862,12.52c-0.362,6.338-1.047,42.081-1.047,42.081
				s-8.403-23.652-11.727-28.207c0,0,8.769-16.268,8.961-31.304C289.115,280.254,294.559,281.177,298.79,285.165z"/>
			<g>
				<path style="fill:#263238;" d="M256.332,375.013c-1.068,0-2.136,0-3.204-0.127c-16.563-1.374-25.789-18.515-27.006-20.971
					c-4.121-0.168-8.226-0.572-12.291-1.208c-5.168-0.897-13.615-3.781-12.184-12.97c0.801-5.067,3.791-7.952,6.952-11.012
					c2.609-2.284,4.795-4.94,6.471-7.864c2.264-4.258,4.624-11.82,6.717-18.515c1.837-5.847,3.577-11.431,4.965-13.857
					c2.937-5.106,5.991-8.069,14.544-10.086c8.201-1.949,25.778-4.132,25.949-4.151l0,0c7.336-0.487,16.648,2.475,22.361,5.145
					l1.068,0.497c11.138,5.204,14.138,6.607,16.018,13.438c1.068,3.986-0.705,13.389-2.595,23.388
					c-1.367,7.143-2.766,14.52-2.883,19.217c-0.246,10.115-0.502,20.581-9.077,25.015c-1.612,0.828-3.396,1.949-5.467,3.206
					C279.141,368.786,269.039,375.013,256.332,375.013z M267.363,275.236c-0.641,0.088-17.78,2.241-25.81,4.132
					c-8.212,1.949-11.02,4.638-13.882,9.589c-1.345,2.339-3.065,7.845-4.891,13.643c-2.136,6.714-4.474,14.325-6.781,18.661
					c-1.725,3.012-3.972,5.749-6.653,8.108c-3.204,3.07-5.927,5.71-6.663,10.476c-1.249,7.971,5.457,10.856,11.309,11.879
					c4.126,0.64,8.291,1.044,12.473,1.208c0.205,0.007,0.388,0.121,0.47,0.292c0.085,0.195,9.162,19.236,26.248,20.659
					c13.882,1.15,24.849-5.632,32.869-10.573c2.136-1.296,3.887-2.407,5.532-3.255c7.475-3.898,8.254-12.464,8.543-24.187
					c0.117-4.765,1.527-12.191,2.894-19.363c1.794-9.423,3.652-19.168,2.616-22.949c-1.751-6.402-4.389-7.63-15.452-12.805
					l-1.068-0.497C283.594,277.672,274.496,274.778,267.363,275.236z"/>
			</g>
			<g>
				<path style="fill:#263238;" d="M266.081,307.657"/>
			</g>
			<g>
				<path style="fill:#263238;" d="M230.735,343.703c-0.067,0.013-0.136,0.013-0.203,0c-0.269-0.097-0.401-0.374-0.295-0.62
					c0.002-0.005,0.004-0.009,0.006-0.014c0.053-0.117,5.339-12.132,5.339-15.407c0-2.3-1.153-4.629-2.488-7.328
					c-0.587-1.179-1.185-2.387-1.751-3.703c-1.847-4.346,2.349-11.138,2.926-12.035c0.256-1.764,3.129-21.331,5.905-24.986
					c0.164-0.217,0.49-0.272,0.728-0.123c0.003,0.002,0.006,0.004,0.009,0.006c0.24,0.152,0.302,0.451,0.139,0.672
					c-2.691,3.547-5.713,24.45-5.734,24.654c-0.014,0.065-0.039,0.128-0.075,0.185c0,0.078-4.645,7.162-2.894,11.275
					c0.545,1.286,1.143,2.485,1.719,3.654c1.388,2.797,2.584,5.223,2.584,7.728c0,3.459-5.158,15.27-5.339,15.767
					C231.215,343.634,230.974,343.749,230.735,343.703z"/>
			</g>
			<g>
				<path style="fill:#FFFFFF;" d="M226.463,347.113c0,0,6.354,3.44,11.117,4.405"/>
			</g>
			<g>
				<path style="fill:#FFFFFF;" d="M232.871,354.422c2.017,0.69,4.139,1.091,6.29,1.189"/>
			</g>
			<g>
				<path style="fill:#FFFFFF;" d="M227.275,349.589c3.35,2.15,7.114,3.704,11.095,4.58"/>
			</g>
			<g>
				<path style="fill:#FFFFFF;" d="M257.837,271.864c0,0-2.392,12.668-2.627,20.464c-0.235,7.796,6.204,15.679,15.27,5.662
					c9.066-10.018,7.635-26.574,7.635-26.574C271.724,274.151,264.367,274.313,257.837,271.864z"/>
			</g>
			<polygon style="fill:#C6FF00;" points="259.169,284.769 259.076,277.292 257.002,276.079 251.925,276.616 251.069,279.614 			"/>
			<g>
				<path style="fill:#263238;" d="M258.307,288.255h-0.085c-0.291-0.044-0.487-0.295-0.439-0.561c0-0.001,0.001-0.003,0.001-0.004
					c0.694-3.605,0.235-10.271,0.235-10.339c-0.024-0.263,0.19-0.494,0.478-0.516c0.004,0,0.009-0.001,0.013-0.001
					c0.293-0.011,0.543,0.191,0.566,0.458c0,0.273,0.48,6.821-0.246,10.563C258.788,288.088,258.566,288.258,258.307,288.255z"/>
			</g>
			<g>
				<path style="fill:#FFFFFF;" d="M204.925,398.888c0,0-5.339,2.602-15.302,2.923c-9.963,0.322-18.154-4.551-13.53-8.449
					c4.912-4.096,11.558-5.997,18.154-5.194c6.407,0.974,16.018,3.245,16.018,3.245L204.925,398.888z"/>
			</g>
			<g>
				<path style="fill:#263238;" d="M188.693,402.269c-6.674,0-12.814-2.271-14.181-5.34c-0.606-1.422-0.11-3.038,1.217-3.966
					c5.029-4.211,11.85-6.161,18.613-5.321c6.407,0.975,16.018,3.235,16.018,3.255c0.165,0.04,0.299,0.148,0.363,0.292
					c0.064,0.148,0.044,0.316-0.053,0.448l-5.339,7.465c-0.048,0.069-0.114,0.126-0.192,0.166c-0.224,0.107-5.564,2.66-15.537,2.982
					L188.693,402.269z M191.192,388.383c-5.456,0.061-10.698,1.943-14.736,5.291c-1.022,0.655-1.415,1.866-0.95,2.923
					c1.068,2.456,6.813,4.96,14.096,4.716c8.917-0.292,14.128-2.446,14.95-2.816l4.848-6.821c-2.349-0.536-9.942-2.261-15.249-3.07
					C193.172,388.459,192.183,388.384,191.192,388.383z M204.925,398.888"/>
			</g>
			<g>
				<path style="fill:#FFFFFF;" d="M206.356,390.721c0.481,0.049,0.993,0.078,1.506,0.098c-3.268-0.741-9.194-2.027-13.615-2.699
					c-6.595-0.803-13.242,1.098-18.154,5.194c-2.349,1.949-1.377,4.229,1.452,5.905c-0.369-2.814,1.384-5.503,4.271-6.548
					C187.839,390.117,200.301,390.117,206.356,390.721z"/>
			</g>
			<g>
				<path style="fill:#263238;" d="M177.545,399.706c-0.102-0.002-0.202-0.029-0.288-0.078c-1.847-1.091-2.883-2.368-3.011-3.684
					c-0.05-1.152,0.5-2.258,1.484-2.982c5.029-4.211,11.85-6.161,18.613-5.321c4.421,0.672,10.454,1.949,13.647,2.699
					c0.267,0.062,0.441,0.296,0.406,0.546c-0.058,0.239-0.287,0.412-0.555,0.419c-0.523,0-1.068-0.049-1.548-0.107l0,0
					c-6.407-0.682-18.538-0.556-24.273,1.949c-2.675,0.963-4.297,3.457-3.94,6.061c0.019,0.188-0.081,0.369-0.256,0.468
					C177.733,399.706,177.639,399.716,177.545,399.706z M191.192,388.383c-5.456,0.061-10.698,1.943-14.736,5.291
					c-0.743,0.522-1.167,1.337-1.143,2.193c0.193,0.963,0.796,1.818,1.677,2.378c0.071-2.657,1.868-5.021,4.57-6.012
					c4.955-2.134,13.583-2.504,19.788-2.319c-2.435-0.497-5.008-0.974-7.187-1.316C193.179,388.452,192.186,388.38,191.192,388.383z
					"/>
			</g>
			<g>
				<path style="fill:#263238;" d="M316.345,371.875c0,0-10.679,14.617-21.357,20.464c-10.679,5.847-59.448,6.548-69.411,6.548
					h-20.652v-6.821c0,0,32.751-4.268,50.905-13.643c18.154-9.374,27.764-19.811,41.999-24.04
					c14.234-4.229,26.696,2.923,26.344,20.464"/>
			</g>
			<g>
				<path style="fill:#263238;" d="M225.577,399.326h-20.652c-0.295,0-0.534-0.218-0.534-0.487v-6.821
					c0.003-0.241,0.198-0.444,0.459-0.477c0.331,0,32.858-4.327,50.713-13.584c6.696-3.576,13.141-7.531,19.296-11.84
					c7.763-5.243,14.47-9.745,22.809-12.24c7.155-2.124,13.829-1.442,18.805,1.949c5.478,3.703,8.404,10.456,8.233,19.012
					c0.006,0.258-0.218,0.472-0.501,0.478c-0.015,0-0.029,0-0.044-0.001c-0.295-0.005-0.529-0.228-0.523-0.497c0,0,0,0,0,0
					c0.171-8.225-2.606-14.695-7.806-18.213c-4.688-3.167-11.02-3.8-17.833-1.773c-8.169,2.426-14.811,6.909-22.51,12.103
					c-6.186,4.329-12.662,8.299-19.392,11.889c-16.872,8.77-46.58,13.087-50.638,13.643v5.915h20.118
					c0.566,0,57.526-0.068,69.133-6.432c10.454-5.72,21.079-20.162,21.186-20.308c0.163-0.222,0.492-0.283,0.737-0.136
					c0.243,0.142,0.314,0.437,0.159,0.66c-0.003,0.004-0.006,0.009-0.009,0.013c-0.107,0.146-10.86,14.773-21.528,20.61
					C283.402,399.248,226.154,399.326,225.577,399.326z"/>
			</g>
			<g>
				<path style="fill:#263238;" d="M198.624,358.018l-1.175-0.107"/>
			</g>
			<g>
				<path style="fill:#263238;" d="M198.624,358.505h-0.053l-1.164-0.098c-0.292-0.026-0.51-0.259-0.491-0.526
					c0.033-0.264,0.285-0.46,0.577-0.448l1.196,0.107c0.295,0.016,0.52,0.247,0.502,0.516s-0.271,0.474-0.566,0.458V358.505z"/>
			</g>
			<g>
				<path style="fill:#FFFFFF;" d="M298.896,400.135c5.329-1.72,10.81-3.024,16.381-3.898c7.475-0.974,13.519,0,15.655,4.229
					c2.136,4.229,0.716,9.413-6.76,10.719c-7.475,1.306-21.005-1.306-22.425-1.306c-1.239-0.129-2.444-0.459-3.556-0.974
					L298.896,400.135z"/>
			</g>
			<g>
				<path style="fill:#263238;" d="M319.122,412.033c-4.977-0.122-9.937-0.571-14.843-1.345c-1.26-0.175-2.253-0.322-2.531-0.322
					c-1.321-0.114-2.609-0.444-3.802-0.975c-0.192-0.087-0.306-0.273-0.288-0.468l0.705-8.77c0.021-0.192,0.156-0.357,0.352-0.429
					c5.366-1.721,10.881-3.025,16.488-3.898c8.543-1.121,14.16,0.439,16.221,4.502c1.226,2.222,1.261,4.836,0.096,7.085
					c-0.865,1.549-2.83,3.547-7.251,4.317C322.567,411.975,320.844,412.076,319.122,412.033z M298.747,408.632
					c0.943,0.417,1.958,0.681,3.001,0.78c0.902,0.069,1.801,0.18,2.691,0.331c4.528,0.643,13.946,1.949,19.638,0.975
					c3.203-0.556,5.403-1.871,6.492-3.81c1.013-1.982,0.97-4.278-0.117-6.227c-2.317-4.59-9.493-4.677-15.1-3.947
					c-5.422,0.841-10.756,2.103-15.943,3.771L298.747,408.632z"/>
			</g>
			<g>
				<path style="fill:#FFFFFF;" d="M322.315,395.964c2.274,0.799,6.567,2.992,5.777,8.049c-1.068,6.821-9.974,6.821-16.018,6.821
					c-0.448,0.004-0.893,0.063-1.324,0.175c4.485,0.478,9.707,0.799,13.423,0.156c7.475-1.306,8.895-6.5,6.759-10.719
					C329.512,397.679,326.415,396.315,322.315,395.964z"/>
			</g>
			<g>
				<path style="fill:#263238;" d="M319.111,412.033c-2.817-0.027-5.63-0.203-8.425-0.526c-0.254-0.027-0.451-0.215-0.47-0.448
					c-0.011-0.232,0.152-0.44,0.395-0.507c0.477-0.118,0.969-0.18,1.463-0.185c6.108,0,14.48,0,15.484-6.402
					c0.726-4.629-3.097-6.704-5.435-7.533c-0.246-0.09-0.386-0.328-0.331-0.565c0.062-0.234,0.303-0.392,0.566-0.37
					c4.602,0.37,7.656,1.949,9.066,4.765c1.226,2.222,1.261,4.836,0.096,7.085c-0.865,1.549-2.83,3.547-7.251,4.317
					C322.566,411.934,320.839,412.058,319.111,412.033z M319.004,411.059c1.699,0.016,3.396-0.102,5.072-0.351
					c3.203-0.556,5.403-1.871,6.492-3.81c1.013-1.982,0.97-4.279-0.117-6.227c-0.99-1.845-2.83-3.192-5.019-3.674
					c2.483,1.604,3.73,4.37,3.204,7.104C327.867,408.876,323.596,410.503,319.004,411.059z"/>
			</g>
			<g>
				<path style="fill:#263238;" d="M194.609,350.768c0,0-12.11-1.949-19.937,3.567c-7.827,5.516-6.76,11.372,0.715,19.821
					c7.475,8.449,26.696,23.388,68.343,30.209c41.647,6.821,54.461,4.541,54.461,4.541l0.705-8.77
					c-17.884,0.056-35.328-5.061-49.826-14.617c-23.311-15.592-33.702-25.833-50.446-27.5"/>
			</g>
			<g>
				<path style="fill:#263238;" d="M290.962,409.773c-7.721,0-22.297-0.828-47.328-4.931c-44.092-7.221-62.705-23.651-68.663-30.384
					c-4.731-5.34-6.631-9.306-6.172-12.883c0.352-2.748,2.136-5.243,5.542-7.621c7.934-5.594,19.851-3.752,20.353-3.664
					c0.281,0.033,0.479,0.267,0.444,0.523c-0.002,0.011-0.004,0.022-0.006,0.032c-0.049,0.266-0.324,0.445-0.615,0.4
					c-0.002,0-0.003,0-0.005-0.001c-0.117,0-11.96-1.842-19.51,3.479c-3.14,2.212-4.827,4.492-5.147,6.967
					c-0.417,3.245,1.474,7.104,5.948,12.152c5.873,6.646,24.272,22.871,68.012,30.043c37.108,6.071,51.396,4.872,53.874,4.6
					l0.63-7.845c-17.791-0.133-35.102-5.275-49.57-14.724c-5.275-3.528-9.952-6.821-14.074-9.745
					c-14.032-9.881-23.301-16.42-36.104-17.697c-0.295-0.03-0.508-0.272-0.475-0.541c0.032-0.269,0.298-0.463,0.593-0.434
					c13.103,1.306,22.425,7.903,36.638,17.892c4.122,2.923,8.788,6.188,14.053,9.745c14.427,9.447,31.738,14.526,49.495,14.52
					c0.152-0.006,0.3,0.047,0.406,0.146c0.105,0.102,0.16,0.24,0.15,0.38l-0.705,8.77c-0.024,0.218-0.202,0.397-0.438,0.439
					C295.862,409.711,293.412,409.839,290.962,409.773z"/>
			</g>
			<g>
				<path style="fill:#FFFFFF;" d="M190.156,359.051c-0.259,0.003-0.481-0.167-0.523-0.4c-0.057-0.259,0.127-0.51,0.41-0.562
					c0.006-0.001,0.012-0.002,0.017-0.003c1.284-0.22,2.583-0.363,3.887-0.429c0.297-0.011,0.549,0.197,0.566,0.468
					c0.012,0.269-0.217,0.496-0.512,0.507c0,0-0.001,0-0.001,0c-1.258,0.063-2.51,0.2-3.748,0.409L190.156,359.051z"/>
			</g>
			<g>
				<path style="fill:#FFFFFF;" d="M293.504,258.319c-6.557,3.157-7.475-3.177-7.422-6.997c0.065-0.04,0.113-0.098,0.139-0.166
					c0.47-1.754,0-10.505-5.521-14.013c-4.869-3.089-11.319-5.749-17.342-5.759c-4.271,0-8.009,2.465-10.283,5.603
					c-2.702,3.732-2.478,8.059-2.691,12.366c-0.214,4.307-0.673,9.063,0.267,13.38c1.26,5.749,7.144,17.823,14.288,17.823
					c6.482,0,17.993-8.848,21.945-14.062c0.895-0.271,1.719-0.706,2.424-1.277C290.781,264.068,293.717,262.158,293.504,258.319z"/>
			</g>
			<g>
				<path style="fill:#263238;" d="M264.938,281.043c-7.699,0-13.636-12.853-14.811-18.223c-0.833-3.81-0.598-7.854-0.374-11.772
					l0.096-1.715l0.064-1.715c0.15-3.713,0.288-7.552,2.723-10.905c2.638-3.645,6.642-5.847,10.679-5.847l0,0
					c5.339,0,11.8,2.144,17.641,5.847c5.841,3.703,6.258,12.668,5.734,14.53c-0.026,0.083-0.065,0.162-0.117,0.234
					c0,2.154,0.331,5.73,2.328,6.821c1.068,0.585,2.488,0.429,4.272-0.448c0.159-0.083,0.354-0.083,0.512,0
					c0.159,0.082,0.26,0.233,0.267,0.4c0.214,3.781-2.445,5.847-4.036,7.026l-0.352,0.263c-0.71,0.579-1.537,1.026-2.435,1.316
					C283.391,271.844,271.933,281.043,264.938,281.043z M263.305,231.871c-3.706,0-7.379,2.017-9.824,5.379
					c-2.264,3.128-2.392,6.665-2.542,10.407l-0.064,1.725l-0.096,1.715c-0.224,3.898-0.459,7.796,0.352,11.538
					c1.335,6.081,7.24,17.434,13.765,17.434c6.076,0,17.363-8.381,21.507-13.857c0.065-0.09,0.164-0.156,0.278-0.185
					c0.827-0.246,1.587-0.647,2.232-1.179l0.363-0.273c1.41-1.072,3.481-2.66,3.652-5.477c-1.417,0.723-3.136,0.752-4.581,0.078
					c-2.371-1.316-2.851-4.999-2.84-7.854c0.004-0.138,0.07-0.268,0.182-0.361c0.438-1.627-0.139-10.115-5.339-13.419
					c-5.66-3.596-11.875-5.662-17.032-5.672H263.305z"/>
			</g>
			<g>
				<path style="fill:#263238;" d="M247.714,253.056c-0.168-0.001-0.325-0.073-0.427-0.195c-0.177-0.215-0.129-0.521,0.107-0.682
					l2.52-1.725c0.236-0.161,0.57-0.118,0.747,0.097c0.171,0.217,0.124,0.518-0.107,0.682l-2.52,1.725
					C247.942,253.023,247.83,253.057,247.714,253.056z"/>
			</g>
			<g>
				<path style="fill:#263238;" d="M255.99,234.298c0,0,7.475-4.151,10.081-0.214c2.606,3.937,14.576,30.092,27.433,24.235
					c12.857-5.857-0.096-25.113-12.569-31.242C268.462,220.947,257.965,226.2,255.99,234.298z"/>
			</g>
			<g>
				<path style="fill:#263238;" d="M289.681,259.663c-9.867,0-18.485-15.436-22.425-22.51c-0.705-1.267-1.271-2.271-1.634-2.816
					c-0.445-0.688-1.184-1.176-2.04-1.345c-2.979-0.663-7.262,1.705-7.304,1.725c-0.252,0.14-0.58,0.068-0.734-0.161
					c-0.071-0.106-0.095-0.233-0.067-0.355c0.942-3.966,3.89-7.289,7.945-8.956c5.19-2.183,11.501-1.686,17.78,1.403
					c8.692,4.278,18.314,15.416,18.154,23.943c0.084,3.499-2.119,6.709-5.606,8.166
					C292.489,259.345,291.096,259.655,289.681,259.663z M262.44,231.9c0.467-0.004,0.933,0.042,1.388,0.137
					c1.129,0.234,2.103,0.883,2.691,1.793c0.384,0.575,0.961,1.588,1.677,2.923c4.346,7.796,14.512,25.98,25.073,21.166
					c3.128-1.292,5.105-4.167,5.019-7.299c0.139-8.186-9.173-18.934-17.598-23.076c-5.98-2.924-11.96-3.42-16.829-1.374
					c-3.355,1.386-5.911,4.002-7.037,7.201C258.558,232.52,260.473,232.018,262.44,231.9z"/>
			</g>
			<g>
				<path style="fill:#263238;" d="M284,332.623c-13.391,0-21.677-9.277-21.763-9.365c-0.154-0.236-0.069-0.541,0.19-0.681
					c0.21-0.114,0.477-0.086,0.654,0.067c0.075,0.088,8.052,9.004,20.919,9.004c0.295,0,0.534,0.218,0.534,0.487
					S284.295,332.623,284,332.623z"/>
			</g>
			<g>
				<path style="fill:#2E353A;" d="M259.468,255.943c-1.614,0-3.365-0.442-4.823-1.778c-0.281-0.257-0.28-0.673,0.001-0.93
					c0.282-0.256,0.738-0.255,1.018,0.002c2.922,2.675,7.007,0.725,7.179,0.641c0.35-0.171,0.787-0.052,0.975,0.267
					c0.188,0.319,0.059,0.717-0.291,0.889C262.626,255.479,261.119,255.943,259.468,255.943z"/>
			</g>
			<g>
				<path style="fill:#2E353A;" d="M274.932,257.123c-1.824,0-3.496-0.761-4.428-1.424c-0.314-0.223-0.369-0.636-0.125-0.923
					c0.245-0.286,0.696-0.337,1.01-0.114c0.161,0.113,3.727,2.568,6.571-0.055c0.279-0.258,0.736-0.261,1.018-0.005
					c0.283,0.256,0.286,0.671,0.006,0.929C277.708,256.708,276.279,257.123,274.932,257.123z"/>
			</g>
			<g>
				<path style="fill:#2E353A;" d="M266.802,265.906c-1.019,0-2.251-0.354-3.432-1.485c-0.274-0.263-0.264-0.679,0.024-0.929
					c0.288-0.25,0.744-0.241,1.018,0.022c1.779,1.703,3.337,0.916,3.509,0.82c0.338-0.188,0.78-0.095,0.99,0.211
					c0.209,0.306,0.113,0.706-0.219,0.9C268.286,265.681,267.611,265.906,266.802,265.906z"/>
			</g>
			<g>
				<path style="fill:#FFFFFF;" d="M207.86,391.476c-0.35,0-0.657-0.233-0.711-0.558c-0.06-0.359,0.21-0.694,0.603-0.749
					c0.267-0.037,26.825-3.79,40.931-9.849c10.446-4.487,21.828-11.868,29.361-16.751c2.794-1.812,5.208-3.378,6.89-4.353
					c0.335-0.194,0.781-0.104,0.994,0.202c0.214,0.306,0.115,0.712-0.222,0.907c-1.65,0.957-4.05,2.513-6.828,4.315
					c-7.574,4.911-19.019,12.332-29.582,16.869c-14.296,6.14-41.058,9.922-41.327,9.959
					C207.934,391.474,207.897,391.476,207.86,391.476z"/>
			</g>
			<g>
				<path style="fill:#FFFFFF;" d="M244.099,382.995c-0.108,0-0.217-0.022-0.321-0.069c-5.613-2.553-10.052-6.514-14.345-10.344
					c-1.105-0.986-2.21-1.972-3.337-2.937c-7.111-6.09-16.91-9.456-26.886-9.216c-0.394-0.004-0.728-0.277-0.738-0.641
					c-0.01-0.363,0.304-0.664,0.702-0.674c10.352-0.232,20.524,3.248,27.909,9.572c1.133,0.971,2.246,1.964,3.358,2.956
					c4.213,3.759,8.57,7.646,13.981,10.108c0.355,0.162,0.5,0.556,0.323,0.881C244.618,382.861,244.363,382.995,244.099,382.995z"/>
			</g>
			<g>
				<path style="fill:#2E353A;" d="M257.184,249.925c-0.365,0-0.678-0.252-0.716-0.59c-0.04-0.361,0.248-0.684,0.643-0.721
					c2.217-0.207,4.378-1.041,6.084-2.349c0.306-0.234,0.76-0.197,1.015,0.081c0.256,0.278,0.217,0.693-0.088,0.926
					c-1.925,1.476-4.362,2.417-6.864,2.65C257.233,249.924,257.209,249.925,257.184,249.925z"/>
			</g>
			<g>
				<path style="fill:#2E353A;" d="M278.718,250.768c-0.044,0-0.088-0.003-0.133-0.011c-0.686-0.117-1.376-0.179-2.107-0.245
					c-0.724-0.065-1.473-0.133-2.216-0.259c-1.882-0.319-3.307-0.983-4.234-1.974c-0.259-0.276-0.223-0.691,0.079-0.927
					c0.302-0.236,0.757-0.204,1.015,0.073c0.708,0.756,1.853,1.273,3.403,1.535c0.682,0.116,1.369,0.178,2.095,0.244
					c0.729,0.066,1.482,0.134,2.229,0.261c0.391,0.066,0.648,0.41,0.576,0.767C279.361,250.547,279.059,250.768,278.718,250.768z"/>
			</g>
			<g>
				<path style="fill:#2E353A;" d="M272.314,271.505c-0.046,0-0.094-0.004-0.141-0.013c-2.933-0.532-5.911-0.563-8.852-0.09
					c-0.391,0.058-0.764-0.177-0.834-0.534c-0.068-0.357,0.193-0.698,0.585-0.761c3.118-0.5,6.273-0.468,9.382,0.096
					c0.39,0.071,0.643,0.417,0.565,0.773C272.952,271.289,272.651,271.505,272.314,271.505z"/>
			</g>
			<g>
				<path style="fill:#263238;" d="M267.466,317.063c-1.744,0-3.574-0.227-5.487-0.681c-4.923-1.169-8.585-3.756-10.884-7.689
					c-6.841-11.704,0.514-31.25,0.831-32.077c0.132-0.342,0.542-0.524,0.918-0.404c0.376,0.12,0.573,0.495,0.443,0.838
					c-0.075,0.197-7.464,19.832-0.919,31.026c2.101,3.595,5.458,5.962,9.975,7.034c5.498,1.305,10.241,0.594,14.093-2.117
					c11.762-8.279,11.959-32.497,11.96-32.74c0.001-0.363,0.323-0.656,0.72-0.656c0.383,0.006,0.721,0.295,0.72,0.659
					c-0.002,1.021-0.198,25.104-12.519,33.777C274.45,316.05,271.151,317.063,267.466,317.063z"/>
			</g>
			<g>
				<path style="fill:#FFFFFF;" d="M291.758,344.056c0,0-4.649-42.802-44.082-66.614c0,0,0.922-10.872-2.557-11.86
					c-3.48-0.988-10.032,9.315-10.032,9.315s-29.113,12.777-41.684,33.592c0,0-5.429-3.11-7.784,0.757
					c-2.75,4.517,8.495,9.4,8.495,9.4s3.806,24.831,31.99,35.738"/>
				<path style="fill:#2E353A;" d="M226.103,355.04c-0.094,0-0.189-0.017-0.281-0.052c-26.407-10.219-31.745-32.818-32.357-35.902
					c-1.525-0.704-7.571-3.677-8.78-7.127c-0.374-1.067-0.272-2.088,0.304-3.034c0.684-1.124,1.662-1.841,2.907-2.133
					c2.007-0.469,4.165,0.322,5.227,0.806c12.16-19.524,38.862-32.027,41.451-33.205c1.369-2.128,7.034-10.504,10.758-9.44
					c3.621,1.028,3.277,9.599,3.092,12.152c38.944,23.754,44.004,66.455,44.05,66.885c0.039,0.361-0.25,0.683-0.646,0.719
					c-0.39,0.036-0.748-0.227-0.788-0.589c-0.046-0.425-5.082-42.773-43.763-66.131c-0.218-0.132-0.341-0.361-0.321-0.599
					c0.364-4.297-0.034-10.608-2.054-11.181c-2.018-0.579-6.593,4.926-9.195,9.017c-0.072,0.114-0.181,0.205-0.31,0.263
					c-0.289,0.127-29.053,12.93-41.365,33.317c-0.096,0.159-0.258,0.273-0.45,0.319c-0.192,0.046-0.396,0.016-0.563-0.079
					c-0.026-0.015-2.635-1.482-4.77-0.978c-0.857,0.201-1.512,0.691-2.002,1.497c-0.38,0.625-0.443,1.277-0.192,1.994
					c1.167,3.33,8.296,6.463,8.367,6.494c0.218,0.095,0.37,0.284,0.404,0.503c0.038,0.245,5.129,24.988,32.59,35.615
					c0.366,0.142,0.013,0.348-0.142,0.682C227.159,355.101,226.383,355.04,226.103,355.04z"/>
			</g>
			<g>
				<g>
					<path style="fill:#FFFFFF;" d="M292.404,312.032l-0.534,27.773c0,0-15.751,8.04-24.561,10.232
						c-4.857,1.324-9.883,2.061-14.95,2.193c-0.801,0-4.271-5.116-6.14-6.821c-1.869-1.705-3.374-1.735-6.792-3.294
						c-4.763-2.173-6.824-2.553-6.557-1.579c0.267,0.974,0.534,1.949,2.937,3.167c2.403,1.218,4.005,2.193,4.005,2.193l0.534,0.974
						c0,0-5.873-0.731-8.276-1.218c-2.403-0.487-8.543-4.385-8.543-4.385s-2.616-0.146-0.747,2.777
						c1.869,2.923,3.684,3.07,3.684,3.07c0.358,1.753,1.289,3.367,2.67,4.629c1.187,0.96,2.435,1.855,3.738,2.68
						c0,0-5.072-1.218-4.538,0c0.534,1.218,3.737,1.705,7.742,3.411c4.005,1.705,13.081,1.949,18.154,2.68
						c9.208,1.084,18.518,1.248,27.764,0.487c10.679-0.974,26.697-7.552,29.633-9.745c2.937-2.193,1.068-26.798,0.267-32.402
						c-0.801-5.603-2.403-16.079-3.47-20.951s-5.339-11.694-8.009-13.156C297.743,283.285,292.938,287.914,292.404,312.032z"/>
				</g>
				<g>
					<path style="fill:#263238;" d="M291.849,312.061L291.849,312.061c0.352-15.728,2.68-25.833,6.407-27.705
						c0.744-0.414,1.68-0.414,2.424,0c2.873,1.569,7.197,8.624,8.255,13.477c1.057,4.853,2.691,15.514,3.481,20.981
						c0.352,2.485,3.075,30.209-0.459,32.84c-3.065,2.29-19.318,8.887-29.9,9.852c-3.802,0.351-7.625,0.448-11.277,0.448
						c-5.56,0.032-11.116-0.294-16.627-0.974c-1.538-0.224-3.47-0.4-5.521-0.585c-4.645-0.429-9.92-0.916-12.814-2.134
						c-1.452-0.614-2.776-1.062-3.951-1.462c-2.189-0.75-3.631-1.238-4.058-2.212c-0.147-0.277-0.097-0.608,0.128-0.838
						c0.395-0.419,1.442-0.429,2.627-0.273c-0.534-0.39-1.143-0.848-1.815-1.384c-1.401-1.247-2.367-2.844-2.776-4.59
						c-0.705-0.214-2.2-0.906-3.684-3.226c-0.78-1.228-0.95-2.134-0.513-2.787c0.408-0.501,1.07-0.773,1.751-0.721
						c0.101,0.001,0.198,0.031,0.278,0.088c0.053,0,6.076,3.849,8.35,4.307c1.751,0.361,5.446,0.848,7.23,1.082l0,0
						c-0.406-0.244-1.858-1.091-3.844-2.105c-2.606-1.316-2.926-2.465-3.204-3.469c-0.126-0.325-0.015-0.688,0.278-0.906
						c0.352-0.253,1.068-0.789,7.027,1.949c1.164,0.536,2.136,0.887,2.926,1.189c1.498,0.447,2.867,1.197,4.005,2.193
						c1.115,1.131,2.149,2.325,3.097,3.576c0.808,1.123,1.738,2.167,2.777,3.118c4.983-0.163,9.924-0.9,14.704-2.193
						c8.02-1.949,22.062-8.985,24.166-10.047 M228.93,354.383c0.406,0.507,1.719,0.975,3.353,1.51
						c1.196,0.4,2.542,0.858,4.026,1.491c2.691,1.15,7.87,1.627,12.43,2.046c2.061,0.195,4.005,0.37,5.585,0.595
						c9.161,1.084,18.425,1.248,27.626,0.487c10.422-0.975,26.355-7.406,29.345-9.638c2.509-1.871,1.068-24.771,0.075-31.963
						c-0.779-5.457-2.381-16.001-3.46-20.922c-1.079-4.921-5.339-11.509-7.763-12.824c-0.414-0.238-0.942-0.238-1.356,0
						c-1.239,0.633-5.339,4.424-5.841,26.876l-0.534,27.773c-0.003,0.173-0.109,0.33-0.278,0.409
						c-0.15,0.088-15.901,8.098-24.678,10.281c-4.904,1.328-9.976,2.071-15.089,2.212c-0.63,0-1.281-0.711-3.524-3.508
						c-0.92-1.207-1.919-2.362-2.99-3.46c-1.047-0.89-2.298-1.556-3.663-1.949c-0.844-0.322-1.794-0.672-3.001-1.218
						c-4.047-1.852-5.339-2.027-5.767-2.046c0.256,0.916,0.555,1.705,2.648,2.767c2.392,1.218,4.026,2.202,4.047,2.212
						c0.074,0.049,0.136,0.112,0.181,0.185l0.534,0.975c0.097,0.157,0.097,0.349,0,0.507c-0.116,0.149-0.315,0.225-0.512,0.195
						c-0.235,0-5.916-0.741-8.319-1.218c-2.403-0.478-7.625-3.771-8.543-4.375c-0.249-0.003-0.487,0.093-0.651,0.263
						c-0.096,0.136-0.224,0.594,0.523,1.774c1.677,2.621,3.268,2.836,3.278,2.836c0.235,0.026,0.425,0.187,0.47,0.4
						c0.344,1.642,1.214,3.155,2.499,4.346c1.168,0.948,2.398,1.83,3.684,2.641c0.247,0.147,0.318,0.448,0.157,0.674
						c-0.128,0.18-0.369,0.262-0.595,0.203c-1.265-0.359-2.583-0.539-3.908-0.536H228.93z M291.881,339.766"/>
				</g>
				<g>
					<path style="fill:#263238;" d="M237.58,351.996h-0.118c-4.784-0.975-11.01-4.317-11.266-4.453
						c-0.254-0.139-0.339-0.438-0.192-0.672c0.146-0.228,0.466-0.304,0.716-0.171c0.004,0.002,0.007,0.004,0.01,0.006
						c0.064,0,6.343,3.411,10.956,4.346c0.295,0.027,0.51,0.267,0.481,0.536c-0.029,0.269-0.292,0.465-0.587,0.439V351.996z"/>
				</g>
				<g>
					<path style="fill:#263238;" d="M239.16,356.098c-2.218-0.096-4.405-0.511-6.482-1.228c-0.273-0.096-0.411-0.374-0.31-0.624
						c0.104-0.252,0.411-0.38,0.688-0.285c0.002,0.001,0.004,0.001,0.007,0.002c1.956,0.667,4.012,1.058,6.098,1.16
						c0.295,0,0.534,0.218,0.534,0.487S239.455,356.098,239.16,356.098L239.16,356.098z"/>
				</g>
				<g>
					<path style="fill:#263238;" d="M238.37,354.656h-0.128c-4.041-0.896-7.857-2.486-11.245-4.687
						c-0.232-0.164-0.275-0.469-0.096-0.682c0.18-0.212,0.514-0.251,0.747-0.088c3.292,2.104,6.987,3.627,10.892,4.492
						c0.282,0.056,0.461,0.311,0.399,0.569c-0.001,0.005-0.003,0.011-0.004,0.016C238.878,354.514,238.636,354.676,238.37,354.656z"
						/>
				</g>
			</g>
			<g>
				<g>
					<path style="fill:#FFFFFF;" d="M220.34,324.216h-0.322c1.148-4.698-1.172-5.705-1.172-5.705l-1.416-3.389
						c-2.83,5.487-10.965,13.163-10.965,13.163c0.354-4.267,4.952-7.999,0.847-6.434c-4.105,1.564-12.007,12.869-12.007,12.869
						c-3.325,4.435-1.22,10.26,6.228,11.864c7.448,1.605,15.19-6.446,18.807-12.579C223.957,327.871,220.34,324.216,220.34,324.216z
						"/>
				</g>
				<g>
					<path style="fill:#2E353A;" d="M203.514,347.45c-0.712,0-1.427-0.073-2.147-0.227c-3.852-0.83-6.61-2.785-7.763-5.505
						c-1.015-2.393-0.612-5.079,1.107-7.37c0.315-0.451,8.06-11.479,12.324-13.104c0.931-0.355,1.885-0.656,2.43-0.123
						c0.568,0.555,0.155,1.305-0.529,2.547c-0.371,0.673-0.817,1.483-1.169,2.364c2.548-2.583,7.08-7.445,9.011-11.19
						c0.082-0.16,0.232-0.282,0.414-0.341c0.182-0.058,0.383-0.046,0.557,0.031c0.117,0.053,1.157,0.558,1.612,1.99
						c0.631,1.989-1.701,6.69-3.932,10.033c-0.208,0.309-0.651,0.407-0.99,0.219c-0.34-0.189-0.447-0.594-0.241-0.904
						c2.475-3.706,4.124-7.811,3.796-8.926c-0.092-0.313-0.223-0.556-0.355-0.739c-3.146,5.419-10.338,12.233-10.657,12.535
						c-0.211,0.199-0.535,0.256-0.813,0.142c-0.277-0.114-0.446-0.373-0.423-0.649c0.166-2.005,1.169-3.827,1.902-5.158
						c0.141-0.257,0.301-0.546,0.424-0.793c-0.132,0.043-0.292,0.099-0.484,0.172c-3.195,1.218-9.513,9.52-11.677,12.616
						c-1.459,1.946-1.806,4.189-0.965,6.172c0.978,2.303,3.375,3.972,6.752,4.699c7.019,1.518,14.613-6.498,18.007-12.25
						c3.338-5.66,0.132-9.004,0.1-9.037c-0.267-0.269-0.243-0.685,0.052-0.928c0.296-0.243,0.751-0.221,1.017,0.047
						c0.162,0.163,3.914,4.074,0.1,10.54C218.138,339.124,211.129,347.449,203.514,347.45z"/>
				</g>
				<g>
					<path style="fill:#2E353A;" d="M217.633,329.982c-0.089-0.008-0.179-0.031-0.265-0.071c-0.356-0.167-0.5-0.564-0.323-0.887
						c3.579-6.507,1.818-10.004,1.792-10.02c-0.327-0.199-0.435-0.602-0.231-0.903c0.204-0.3,0.627-0.4,0.963-0.219
						c0.156,0.084,3.017,4.017-1.236,11.748C218.199,329.874,217.917,330.006,217.633,329.982z"/>
				</g>
			</g>
			<g>
				<path style="fill:#2E353A;" d="M239.642,342.372c-0.245,0-0.483-0.113-0.618-0.318c-0.161-0.243-15.929-24.605-5.333-50.166
					c0.141-0.34,0.556-0.51,0.929-0.383c0.372,0.128,0.559,0.508,0.419,0.847c-10.344,24.952,5.062,48.785,5.219,49.023
					c0.205,0.311,0.095,0.714-0.245,0.902C239.896,342.342,239.768,342.372,239.642,342.372z"/>
			</g>
			<g>
				<path style="fill:#2E353A;" d="M252.338,314.02c-0.15,0-0.302-0.042-0.431-0.131c-0.318-0.218-0.383-0.63-0.145-0.92
					c2.295-2.797,5.074-5.165,8.26-7.039c0.336-0.196,0.781-0.108,0.996,0.196c0.215,0.306,0.119,0.712-0.215,0.909
					c-3.042,1.788-5.695,4.049-7.887,6.722C252.774,313.929,252.558,314.02,252.338,314.02z"/>
			</g>
			<g>
				<path style="fill:#2E353A;" d="M244.545,344.37c-0.356,0-0.666-0.241-0.713-0.572c-0.074-0.518-1.754-12.808,3.794-24.311
					c0.16-0.332,0.581-0.483,0.95-0.336c0.364,0.146,0.529,0.534,0.368,0.866c-5.381,11.156-3.701,23.487-3.683,23.61
					c0.051,0.36-0.226,0.69-0.621,0.737C244.608,344.368,244.576,344.37,244.545,344.37z"/>
			</g>
			<g>
				<path style="fill:#FFFFFF;" d="M293.668,255.305c-3.266,0-6.681-1.374-9.46-3.868c-2.921-2.622-4.743-5.933-6.504-9.38
					l-0.363-0.712c-1.525-2.997-3.102-6.096-5.425-8.617c-1.061-1.152-2.031-1.884-3.052-2.306c-1.23-0.507-2.546-0.518-3.521-0.029
					c-0.348,0.175-0.786,0.059-0.978-0.26c-0.192-0.318-0.065-0.717,0.284-0.892c1.369-0.687,3.167-0.694,4.808-0.016
					c1.224,0.505,2.355,1.349,3.561,2.657c2.446,2.654,4.064,5.834,5.628,8.909l0.362,0.711c1.703,3.333,3.459,6.529,6.208,8.998
					c2.973,2.67,6.877,3.947,10.189,3.334c0.395-0.072,0.77,0.158,0.85,0.513c0.079,0.356-0.173,0.703-0.563,0.775
					C295.03,255.244,294.352,255.305,293.668,255.305z"/>
			</g>
			<g>
				<path style="fill:#FFFFFF;" d="M293.542,235.893c-2.443,0-5.056-1.177-7.466-3.387c-0.753-0.691-1.461-1.434-2.145-2.153
					c-1.279-1.343-2.486-2.612-3.987-3.594c-4.065-2.661-10.07-2.815-15.294-0.392c-0.356,0.164-0.788,0.036-0.968-0.288
					c-0.18-0.324-0.039-0.719,0.316-0.884c5.7-2.644,12.288-2.448,16.786,0.496c1.638,1.072,2.958,2.459,4.235,3.8
					c0.668,0.702,1.359,1.428,2.079,2.088c1.4,1.285,4.206,3.376,7.257,2.943c0.402-0.054,0.762,0.19,0.823,0.548
					c0.061,0.359-0.208,0.695-0.601,0.751C294.236,235.869,293.891,235.893,293.542,235.893z"/>
			</g>
			<g>
				<path style="fill:#FFFFFF;" d="M245.562,403.579c-7.049,0-11.359-0.822-11.632-0.875c-0.389-0.076-0.636-0.426-0.552-0.78
					c0.083-0.354,0.466-0.582,0.855-0.505c0.403,0.079,40.682,7.498,77.964-24.62c0.29-0.248,0.745-0.236,1.018,0.027
					c0.273,0.264,0.26,0.68-0.03,0.929c-19.773,17.033-40.25,22.912-53.946,24.845C254.015,403.337,249.385,403.579,245.562,403.579
					z"/>
			</g>
		</g>
	</g>
</g>
<g id="Mug">
	<g>
		<path style="fill:#C6FF00;stroke:#263238;stroke-linecap:round;stroke-linejoin:round;" d="M391.1,394.457
			c0,0-0.902-3.597-3.898-2.394s-2.695,9.15-2.106,13.65c0.589,4.5,4.65,2.394,4.65,2.394v-2.695c0,0-1.492,1.191-2.244-0.451
			c-0.752-1.642-0.602-9.902,0.15-9.752c0.752,0.15,2.244,2.695,2.244,2.695S390.348,397.616,391.1,394.457z"/>
		<path style="fill:#C6FF00;stroke:#263238;stroke-linecap:round;stroke-linejoin:round;" d="M388.944,395.059v19.704
			c0,2.319,5.327,4.199,11.908,4.199s11.895-1.88,11.895-4.199v-19.704H388.944z"/>
		<path style="fill:#FFFFFF;stroke:#263238;stroke-linecap:round;stroke-linejoin:round;" d="M412.747,395.059
			c0,2.005-5.327,3.622-11.895,3.622s-11.908-1.617-11.908-3.622c0-2.006,5.327-3.622,11.908-3.622S412.747,393.066,412.747,395.059
			z"/>
		<path style="fill:#FFFFFF;stroke:#263238;stroke-linecap:round;stroke-linejoin:round;" d="M411.193,395.059
			c0,1.742-4.638,3.146-10.341,3.146s-10.353-1.404-10.353-3.146c0-1.742,4.638-3.146,10.353-3.146S411.193,393.317,411.193,395.059
			z"/>
		<path style="fill:#263238;stroke:#263238;stroke-linecap:round;stroke-linejoin:round;" d="M392.868,397.064
			c5.21,1.521,10.746,1.521,15.956,0C403.614,395.544,398.078,395.544,392.868,397.064z"/>
		<path style="fill:none;stroke:#263238;stroke-linecap:round;stroke-linejoin:round;" d="M397.443,389.845
			c0,0,8.335-5.014,5.615-10.742c-2.72-5.728-11.92-9.526-11.92-18.45c0-7.696,8.185-10.541,13.524-13.625"/>
		<path style="fill:none;stroke:#263238;stroke-linecap:round;stroke-linejoin:round;" d="M405.139,389.682
			c0,0,4.65-3.096,4.65-8.009c0-3.297-3.522-5.452-8.172-10.754"/>
	</g>
</g>
</svg>
